<svg xmlns="http://www.w3.org/2000/svg" viewBox="0 0 110.47 38.58"><defs><style>.cls-1{fill:#fff;}.cls-2{fill:#d0f6ff;}</style></defs><g id="Layer_2" data-name="Layer 2"><g id="Layer_2-2" data-name="Layer 2"><g id="Cloud"><path class="cls-1" d="M110.46,38.58c0-.08,0-.15,0-.22A24.08,24.08,0,0,0,77.48,16a31.2,31.2,0,0,0-57.9,9.3A17.56,17.56,0,0,0,0,38.58Z"/><path class="cls-2" d="M87,38.58s0-.09,0-.13A13.83,13.83,0,0,0,68,25.61,17.94,17.94,0,0,0,34.73,31a9.77,9.77,0,0,0-1.44-.1,10.1,10.1,0,0,0-9.82,7.73Z"/></g></g></g></svg>