<svg xmlns="http://www.w3.org/2000/svg" viewBox="0 0 110.47 38.58"><defs><style>.cls-1{fill:#fff;}.cls-2{fill:#d0f6ff;}</style></defs><g id="Layer_2" data-name="Layer 2"><g id="Layer_2-2" data-name="Layer 2"><g id="Cloud"><path class="cls-1" d="M0,38.58a1.7,1.7,0,0,1,0-.22A24,24,0,0,1,33,16a31.21,31.21,0,0,1,57.91,9.3,17.35,17.35,0,0,1,2.51-.18,17.57,17.57,0,0,1,17.07,13.43H0Z"/><path class="cls-2" d="M23.48,38.58s0-.09,0-.13a13.83,13.83,0,0,1,19-12.84A17.94,17.94,0,0,1,75.74,31a11.35,11.35,0,0,1,1.44-.1A10.08,10.08,0,0,1,87,38.57H23.48Z"/></g></g></g></svg>