<svg xmlns="http://www.w3.org/2000/svg" viewBox="0 0 449.24 410.38"><defs><style>.cls-1{fill:#00a042;}.cls-2{fill:#6cdc2d;}.cls-3{fill:#ff9f00;}.cls-4{fill:#eb7722;}.cls-5{fill:#a63914;}.cls-6{fill:#ed771b;}</style></defs><g id="Layer_2" data-name="Layer 2"><g id="Layer_2-2" data-name="Layer 2"><g id="Island"><path class="cls-1" d="M334.16,87.43l20.21-11.71,4.5-19.44L378,62l27.47-15.93,4.5-19.43L429,32.43l20.2-11.71A70.44,70.44,0,0,0,334.16,87.43Z"/><path class="cls-2" d="M332.29,83.75l20.07,9.62,17.72-6.89,5.72,18.13,27.28,13.08,17.72-6.89,5.72,18.13,20.07,9.62a67.13,67.13,0,0,0-114.3-54.8Z"/><path class="cls-2" d="M334.9,83.85,314.66,72.12l-4.5-19.46L291,58.42,263.52,42.48,259,23l-19.13,5.76L219.65,17.05A70.54,70.54,0,0,1,334.9,83.85Z"/><path class="cls-1" d="M337.87,83.75l-20.06,9.62-17.72-6.89-5.72,18.13-27.29,13.08-17.71-6.89-5.72,18.13-20.07,9.62a67.12,67.12,0,0,1,114.29-54.8Z"/><path class="cls-3" d="M348.5,231H319.76q.19-8,.44-15.61c0-.94.05-1.87.09-2.81q.18-5.35.38-10.5l.1-2.82c.14-3.58.3-7.08.45-10.51,0-.94.1-1.88.14-2.81.16-3.59.35-7.09.53-10.51.05-.95.1-1.88.16-2.82.19-3.59.41-7.1.61-10.5q.09-1.42.18-2.82.35-5.42.72-10.51c.07-1,.14-1.88.2-2.81.28-3.63.55-7.13.83-10.51.08-.95.16-1.89.23-2.81.31-3.65.63-7.15.94-10.52l.27-2.81q.54-5.5,1.08-10.51c.1-1,.2-1.89.31-2.81.42-3.73.82-7.23,1.24-10.52.11-1,.23-1.89.35-2.81q.72-5.72,1.43-10.51c.13-1,.27-1.91.41-2.81,2.55-17.14,4.5-24.79,4.5-24.79,1.35,8.22,2.56,16.51,3.64,24.79.12.94.25,1.88.36,2.81.45,3.51.88,7,1.28,10.51.11.94.22,1.88.32,2.81.41,3.53.78,7,1.14,10.52.1.94.19,1.87.28,2.81q.54,5.3,1,10.51c.09.94.16,1.88.25,2.81.31,3.55.61,7,.87,10.52.08.94.15,1.88.22,2.81.27,3.56.53,7.06.76,10.51.06.94.13,1.87.19,2.81q.34,5.37.65,10.51c.05.94.1,1.89.16,2.82q.28,5.4.54,10.51c0,.95.09,1.88.13,2.81.17,3.64.31,7.14.44,10.51,0,.95.08,1.88.1,2.81.14,3.7.25,7.21.34,10.51,0,1,.06,1.89.09,2.82.1,3.82.17,7.34.23,10.5,0,1,0,1.91,0,2.81.16,9.89.12,15.61.12,15.61Z"/><path class="cls-4" d="M348.5,231H335.36V54.55c1.34,8.22,2.55,16.51,3.63,24.79.12.94.25,1.88.36,2.82.45,3.51.88,7,1.28,10.51l.33,2.81c.4,3.52.77,7,1.13,10.51.1.94.19,1.88.28,2.81.36,3.53.69,7,1,10.51l.24,2.82c.31,3.54.61,7,.87,10.51.08.94.15,1.88.22,2.81q.42,5.34.76,10.51c.07.94.13,1.88.19,2.81.23,3.58.45,7.09.65,10.51.05.95.11,1.89.16,2.82.2,3.6.37,7.1.54,10.51,0,.95.09,1.88.14,2.81.16,3.64.31,7.14.43,10.51,0,.95.08,1.89.11,2.82.13,3.7.24,7.21.34,10.51,0,1,.05,1.89.08,2.81.1,3.83.17,7.35.23,10.5,0,1,0,1.92,0,2.82.16,9.88.12,15.6.12,15.6Z"/><path class="cls-5" d="M339.35,82.16h-8.91c.13-1,.27-1.91.41-2.82H339C339.11,80.28,339.24,81.22,339.35,82.16ZM341,95.48h-12.3c.11-1,.23-1.9.35-2.81h11.62Zm1.41,13.32H327.11c.11-1,.21-1.89.31-2.81h14.67C342.19,106.93,342.28,107.87,342.37,108.8Zm1.25,13.33H325.77q.12-1.42.27-2.82h17.34c.08,1,.16,1.88.24,2.82Zm1.09,13.32H324.59c.08-.95.16-1.88.23-2.81h19.67C344.57,133.58,344.64,134.52,344.71,135.45Zm1,13.33h-22.1c.07-1,.14-1.89.2-2.82h21.71c.07.94.13,1.88.19,2.81Zm.81,13.32H322.66l.18-2.82h23.47C346.36,160.22,346.42,161.17,346.47,162.1Zm.68,13.32H321.89c.05-.95.1-1.88.16-2.82h25C347.05,173.56,347.1,174.49,347.15,175.42Zm.54,13.33H321.23c0-.95.09-1.89.13-2.82h26.22c0,.95.08,1.88.11,2.81Zm.42,13.32H320.67l.1-2.82H348c0,1,.05,1.9.08,2.82Zm.27,13.31H320.2c0-.94.05-1.87.09-2.81h28c0,1,0,1.91,0,2.81Z"/><path class="cls-6" d="M101.09,323.1c37.14,0,37.14-16,74.27-16s37.14,16,74.28,16,37.14-16,74.27-16,37.14,16,74.28,16c18,0,27.26-3.76,36.26-7.63a223.71,223.71,0,0,0-19.6-40.4H33.15a223.74,223.74,0,0,0-16.51,32.49c3.07-.29,6.42-.46,10.17-.46C64,307.1,64,323.1,101.09,323.1Z"/><path class="cls-5" d="M110,410.38c37.14,0,37.14-16,74.27-16s37.14,16,74.27,16,37.14-16,74.28-16,37.14,16,74.27,16c21,0,30.12-5.11,40.79-9.55.1-2.8.17-5.62.17-8.45a223.78,223.78,0,0,0-13.55-76.91c-9,3.87-18.28,7.63-36.26,7.63-37.14,0-37.14-16-74.28-16s-37.13,16-74.27,16-37.14-16-74.28-16-37.13,16-74.27,16-37.14-16-74.28-16c-3.75,0-7.1.17-10.17.46A223.19,223.19,0,0,0,0,392.38c0,3.12.08,6.21.21,9.29,8.76-3.75,18-7.29,35.48-7.29C72.82,394.38,72.82,410.38,110,410.38Z"/><path class="cls-1" d="M351.06,275.07h63.79A224.14,224.14,0,0,0,187.52,171.36,244,244,0,0,1,351.06,275.07Z"/><path class="cls-2" d="M187.52,171.36A224.1,224.1,0,0,0,33.15,275.07H351.06A244,244,0,0,0,187.52,171.36Z"/></g></g></g></svg>