<svg xmlns="http://www.w3.org/2000/svg" viewBox="0 0 1168 292"><defs><style>.cls-1{fill:#65b2ff;}.cls-2{fill:#0f9be8;}</style></defs><g id="Layer_2" data-name="Layer 2"><g id="Layer_2-2" data-name="Layer 2"><g id="Water"><rect class="cls-1" width="1168" height="292"/><path class="cls-2" d="M1168,80.32V292H0V83.27C11.28,88.41,21.19,96,42.28,96c37.13,0,37.13-16,74.27-16s37.14,16,74.27,16S228,80,265.1,80s37.13,16,74.26,16,37.14-16,74.27-16,37.14,16,74.27,16S525,80,562.18,80s37.14,16,74.27,16,37.14-16,74.28-16S747.86,96,785,96s37.14-16,74.28-16,37.14,16,74.27,16,37.14-16,74.28-16,37.14,16,74.28,16,37.14-16,74.28-16C1160.74,80,1164.57,80.11,1168,80.32Z"/></g></g></g></svg>